# xmcd
#
# Track frame offsets:
#	150
#	15105
#	28580
#	40322
#	52635
#	62880
#	76662
#	88392
#	102580
#	114455
#	123797
#	138050
#	150852
#	164585
#	173982
#	191830
#	209237
#	223032
#	233732
#	244540
#	255817
#	267717
#	278950
#	292782
#	302925
#	314665
#	325887
#	341195
#
# Disc length: 4736 seconds
#
# Revision: 0
# Processed by: cddbd v1.5.1PL0 Copyright (c) Steve Scherf et al.
# Submitted via: audiograbber 1.83.01
#
DISCID=90127e1c
DTITLE=Hank Snow - The Singing Ranger, Vol. 4 (5 of 9)
DYEAR=1900
DGENRE=Country
TTITLE0=The big silver screen on the strand
TTITLE1=Six string Tennessee flat top
TTITLE2=Somewhere my love
TTITLE3=Why me, Lord
TTITLE4=Born to be with you
TTITLE5=I keep dreaming of you all the time
TTITLE6=Birth of the blues
TTITLE7=Hijack
TTITLE8=Come live with me
TTITLE9=That's you and me
TTITLE10=Paper roses
TTITLE11=Why do you punish me (for loving you)
TTITLE12=Brand on my heart
TTITLE13=Mama tried
TTITLE14=The prisoner song
TTITLE15=Little Buddy
TTITLE16=All I can hold to
TTITLE17=You're easy to love
TTITLE18=I just want you to know
TTITLE19=Right or wrong
TTITLE20=Colorado country morning
TTITLE21=Top of the morning
TTITLE22=She even woke me up to say goodbye
TTITLE23=So good to be back with you
TTITLE24=Follow me
TTITLE25=Merry-go-round of love
TTITLE26=I almost lost my mind
TTITLE27=My dreams tell it like it was
EXTD=
EXTT0=
EXTT1=
EXTT2=
EXTT3=
EXTT4=
EXTT5=
EXTT6=
EXTT7=
EXTT8=
EXTT9=
EXTT10=
EXTT11=
EXTT12=
EXTT13=
EXTT14=
EXTT15=
EXTT16=
EXTT17=
EXTT18=
EXTT19=
EXTT20=
EXTT21=
EXTT22=
EXTT23=
EXTT24=
EXTT25=
EXTT26=
EXTT27=
PLAYORDER=
